<?xml version="1.0" standalone="no"?>
<!DOCTYPE svg PUBLIC "-//W3C//DTD SVG 20010904//EN"
 "http://www.w3.org/TR/2001/REC-SVG-20010904/DTD/svg10.dtd">
<svg version="1.0" xmlns="http://www.w3.org/2000/svg"
 width="10.000000pt" height="10.000000pt" viewBox="0 0 10.000000 10.000000"
 preserveAspectRatio="xMidYMid meet">
<metadata>
Created by potrace 1.16, written by Peter Selinger 2001-2019
</metadata>
<g transform="translate(0.000000,10.000000) scale(0.004255,-0.004673)"
fill="#000000" stroke="none">
<path d="M870 1834 c-168 -169 -296 -303 -285 -300 156 55 315 7 458 -138 l54
-55 43 87 c84 170 244 286 392 287 l68 0 -213 213 c-116 116 -212 212 -212
212 0 0 -137 -138 -305 -306z"/>
<path d="M1660 1750 c0 -59 1 -60 38 -79 98 -51 186 -161 224 -285 20 -62 23
-93 23 -241 l0 -170 194 3 195 3 -197 197 -197 197 0 218 0 217 -140 0 -140 0
0 -60z"/>
<path d="M1437 1510 c-103 -26 -198 -104 -241 -200 -29 -63 -50 -180 -40 -223
4 -20 3 -27 -5 -23 -6 4 -11 13 -11 20 0 32 -86 181 -135 234 -72 78 -146 114
-246 120 -197 12 -321 -95 -336 -290 -15 -194 88 -402 296 -601 167 -159 413
-316 602 -382 37 -13 38 -13 82 25 113 99 255 295 332 455 87 181 119 331 114
521 -4 106 -7 125 -32 176 -32 65 -91 128 -144 153 -42 20 -180 29 -236 15z"/>
<path d="M175 1140 l-170 -170 163 0 163 0 -8 48 c-12 70 -6 201 11 250 8 23
14 42 13 42 -1 0 -79 -76 -172 -170z"/>
<path d="M1922 864 c-50 -263 -221 -613 -389 -794 l-65 -70 236 0 236 0 0 465
c0 256 -1 465 -3 465 -1 0 -8 -30 -15 -66z"/>
<path d="M410 392 l0 -392 442 0 441 0 -97 50 c-298 151 -599 422 -750 674
l-36 60 0 -392z"/>
</g>
</svg>
